<svg xmlns="http://www.w3.org/2000/svg" viewBox="-215 -215 500 500"><path fill="#AE3437" d="M-99.3 131.6c28.8 0 51.6-8.7 67.9-25.8 16.3-17.2 24.6-41.1 24.6-71 0-28-8.2-50.4-24.3-66.4-16.1-16-39.2-24-68.6-24h-30.1v187.2h30.5zm115 30c-28.7 22.3-65.6 33.6-109.6 33.6h-112.6v-314.7h112.6c44.4 0 80.4 8.4 107.1 24.8a119 119 0 0151 65.5l46.8-99.5 50.6 107.9L274.5-3.6 192.8 80l19.4 118.4L111 142.5l-101.2 56 6-37z"/><path fill="#F9D25A" d="M-126.1-52h26.4c28.4 0 50.6 7.8 66 23 15.6 15.5 23.1 36.4 23.1 63.8 0 29-7.9 52-23.5 68.4-15.8 16.6-37 24.6-65.2 24.6H-126V-51.8zm237-85.5l-6.7 14.4L64.7-39c-22.7-56-76-84.3-158.6-84.3h-116.3v322.1H-94c24.4 0 46.8-3.4 66.7-10.2 13.6-4.6 26.3-11 37.8-18.8l-3.3 20.3L5 205.4l13.4-7.4 92.7-51.2 92.6 51.2 13.5 7.4-2.5-15.2-17.8-108.9 75.3-77.1 10.1-10.4L268-8.4 164.2-24.2l-46.5-99-6.7-14.3zm-244.5 272.8h34.3c30 0 53.5-9 70.6-27 17-18 25.6-42.5 25.6-73.5 0-29.2-8.5-52.3-25.4-69-17-16.8-40.7-25.2-71.2-25.2h-33.9v194.7M111-119.9L159-17.4 266.7-1l-77.9 79.8 18.4 112.6-96.2-53.2-96.3 53.2 6.4-39.1c-29.3 26-67.7 39.1-115 39.1h-108.8v-307.1H-94c87.8 0 140.2 32.3 157.4 96.9L111-120"/></svg>